<svg xmlns="http://www.w3.org/2000/svg" viewBox="0 0 3997 3591.3">
  <g id="background">
    <path fill="#231f20" d="M0 0h2135v1818.5H0V0"/>
    <path fill="#393839" d="M1255.6 139.5c-27.2 26.3-19.5 105 27.6 109.7s137.5 28.3 183.6 18.8 37.7-104-3.2-117.8-182-34.5-208-10.7M683.3 753.2s-61.2 92.6-16 197.3L935 997l195.8 129 115.8 130.6s112.4-33.7 120.9-136.2-82.9-189-82.9-189L996.1 744l-312.8 9.2"/>
    <path fill="#231f20" d="M1574.8 1801.8h2381.5v1739.8H1574.8z"/>
  </g>
  <g id="collisions">
    <path fill="#414042" d="M3212 2954s-84.7-59.7-40.5-121.6c47.4-66.5 149.6-28 188.9 38s-64.7 119.2-148.3 83.7Z"/>
    <path fill="#414042" d="M3584.8 2984.5c27.8 145.8-35.5 192.7-72.3 235.8s-211.9 24.3-374.2-62.1c-132-70.3-59.5-156-10.4-128.4 52.1 29.2 260.4 134.7 346.6-11 98.8-167.3-33-277.7-87.5-313.2s-254.4-129-360 29.2c-50.1 75-172.8 25.9-296-50.5-98.7-61.2-199.8-110-362.5-147.4s-404 90.5-275.4 289.7c200.3 310-78.9 353-131 224.2-22.8-56.2-137.4-536-25.5-707.7 0 0 78.9-181.5 270.8-63.1 325.5 254.8 594.2 373.4 839.2 273.7 0 0 141.3-57.2 201-38.2 55.8 17.7 100.1 78.6 163.5 135.6s145.8 187.6 173.7 333.4ZM1668.8 2062.4l2-7.8c-.8 2.7-1.4 5.3-2 7.8Z"/>
    <path fill="#414042" d="M1534.8 823c119.7 45 206-215 243.3-278s-65.7-92.5-65.7-92.5c-6.5 0-12 .1-16.5.4-53.6 3.7-124.5-61.8-159-137.3s-253.7-66.3-253.7-66.3c115.4 56.3-4.6 159-45.5 178.2s-202.7 29-296.3 30.8-185.5-40.9-211.9-87.2-128.1-105.5-191.8-100c-55.2 4.7-57 104.7-75 147.6a41.6 41.6 0 0 1-9.5 15 23.3 23.3 0 0 1-4.9 3.3c-57.7 42.5 15.9 142.7 85 220.7 71 80.1 222.2 133 394 152.7s305.7 145 423.6 290.1S1502 1232 1641 1153.4c-89.3-84.5-200.2-126.4-200.2-126.4s-390-325.7-220.1-512.3 193-127.5 277.3-137.8 44.5 141.6 0 198.3-83 202.7 36.8 247.8Zm0 0c119.7 45 206-215 243.3-278s-65.7-92.5-65.7-92.5c-6.5 0-12 .1-16.5.4-53.6 3.7-124.5-61.8-159-137.3s-253.7-66.3-253.7-66.3c115.4 56.3-4.6 159-45.5 178.2s-202.7 29-296.3 30.8-185.5-40.9-211.9-87.2-128.1-105.5-191.8-100c-55.2 4.7-57 104.7-75 147.6a41.6 41.6 0 0 1-9.5 15 23.3 23.3 0 0 1-4.9 3.3c-57.7 42.5 15.9 142.7 85 220.7 71 80.1 222.2 133 394 152.7s305.7 145 423.6 290.1S1502 1232 1641 1153.4c-89.3-84.5-200.2-126.4-200.2-126.4s-390-325.7-220.1-512.3 193-127.5 277.3-137.8 44.5 141.6 0 198.3-83 202.7 36.8 247.8Zm0 0c119.7 45 206-215 243.3-278s-65.7-92.5-65.7-92.5c-6.5 0-12 .1-16.5.4-53.6 3.7-124.5-61.8-159-137.3s-253.7-66.3-253.7-66.3c115.4 56.3-4.6 159-45.5 178.2s-202.7 29-296.3 30.8-185.5-40.9-211.9-87.2-128.1-105.5-191.8-100c-55.2 4.7-57 104.7-75 147.6a41.6 41.6 0 0 1-9.5 15 23.3 23.3 0 0 1-4.9 3.3c-57.7 42.5 15.9 142.7 85 220.7 71 80.1 222.2 133 394 152.7s305.7 145 423.6 290.1S1502 1232 1641 1153.4c-89.3-84.5-200.2-126.4-200.2-126.4s-390-325.7-220.1-512.3 193-127.5 277.3-137.8 44.5 141.6 0 198.3-83 202.7 36.8 247.8Zm134 1239.4 2-7.8c-.8 2.7-1.4 5.3-2 7.8ZM1534.8 823c119.7 45 206-215 243.3-278s-65.7-92.5-65.7-92.5c-6.5 0-12 .1-16.5.4-53.6 3.7-124.5-61.8-159-137.3s-253.7-66.3-253.7-66.3c115.4 56.3-4.6 159-45.5 178.2s-202.7 29-296.3 30.8-185.5-40.9-211.9-87.2-128.1-105.5-191.8-100c-55.2 4.7-57 104.7-75 147.6a41.6 41.6 0 0 1-9.5 15 23.3 23.3 0 0 1-4.9 3.3c-57.7 42.5 15.9 142.7 85 220.7 71 80.1 222.2 133 394 152.7s305.7 145 423.6 290.1S1502 1232 1641 1153.4c-89.3-84.5-200.2-126.4-200.2-126.4s-390-325.7-220.1-512.3 193-127.5 277.3-137.8 44.5 141.6 0 198.3-83 202.7 36.8 247.8Zm0 0c119.7 45 206-215 243.3-278s-65.7-92.5-65.7-92.5c-6.5 0-12 .1-16.5.4-53.6 3.7-124.5-61.8-159-137.3s-253.7-66.3-253.7-66.3c115.4 56.3-4.6 159-45.5 178.2s-202.7 29-296.3 30.8-185.5-40.9-211.9-87.2-128.1-105.5-191.8-100c-55.2 4.7-57 104.7-75 147.6a41.6 41.6 0 0 1-9.5 15 23.3 23.3 0 0 1-4.9 3.3c-57.7 42.5 15.9 142.7 85 220.7 71 80.1 222.2 133 394 152.7s305.7 145 423.6 290.1S1502 1232 1641 1153.4c-89.3-84.5-200.2-126.4-200.2-126.4s-390-325.7-220.1-512.3 193-127.5 277.3-137.8 44.5 141.6 0 198.3-83 202.7 36.8 247.8Zm0 0c119.7 45 206-215 243.3-278s-65.7-92.5-65.7-92.5c-6.5 0-12 .1-16.5.4-53.6 3.7-124.5-61.8-159-137.3s-253.7-66.3-253.7-66.3c115.4 56.3-4.6 159-45.5 178.2s-202.7 29-296.3 30.8-185.5-40.9-211.9-87.2-128.1-105.5-191.8-100c-55.2 4.7-57 104.7-75 147.6a41.6 41.6 0 0 1-9.5 15 23.3 23.3 0 0 1-4.9 3.3c-57.7 42.5 15.9 142.7 85 220.7 71 80.1 222.2 133 394 152.7s305.7 145 423.6 290.1S1502 1232 1641 1153.4c-89.3-84.5-200.2-126.4-200.2-126.4s-390-325.7-220.1-512.3 193-127.5 277.3-137.8 44.5 141.6 0 198.3-83 202.7 36.8 247.8Z"/>
    <path fill="#414042" d="M2135 1771.7V0H0v1818.5h1498v1772.8h2499V1771.7Zm289.5 181c239 146.2 169.2 614.4 566.3 512.9 322.2-99.7 267.5-152.4 267.5-152.4s-95.7-122.2-57.6-242.6c77.3-244.8 457.6-55.8 467.5 58 14.2 164.7-125.1 188.7-142.1 264.3-11.4 50.7 109.4 139.1 195.5 229.1 109.6 114.6 164.4 265.2 179.3 386 26.3 212.2-36.5 428-245.2 429-209.1 1-599.5-38-701-183.8-58.7-84.4-67.2-213.7-31.1-298s-196.5-142-285.4-137.4c-249.8 12.8-322.4 98.7-288 267.4s-12 313-231.7 351.8-565.5-303.4-507.3-935.6c19.4-211 35.2-348 57.6-438.9a.8.8 0 0 0 0-.1l2-7.8.7-2.7.7-2.8.7-2.6 2.3-8.1a2126.6 2126.6 0 0 0 47.3-220c2.7-15.9 5.2-31.5 7.5-46.7 18.1-119.6 25.9-213.7 25.9-213.7 5.6-122.7-1.7-213-19.2-263.7-40.4 254.2-431.1 197.6-485.6-20s-194.9-306.8-346-337-436.7 18.1-467 240.3S607.4 1318 607.4 1318c-176.8-273.5 275-294.7 391.4-260s400.4 646.8-214.6 677-661.9-776.6-687.6-952 134.5-136 166.2-207S228.1 453.7 124.1 452c-96.4-1.8-76.5-183.7-78.2-249C40.5-14.5 258.6 28.2 372.3 26.4s110.9 57.3 146.3 108.2 115.5-1 198.2 5.5S812.3 37.4 934.1 22.9s204.5 101.8 398.2 135.4S1577.7 33 1756.8 26.5s201 108.2 141 118.2-96.4 123.6-18.3 153.6S1966 182 2046 181.1c83.8-1 81 164.5-4.5 228.1-29.2 21.8-72.4 33.3-118.8 39.3-104 45.1 53.7 355.2 143.8 447.8s-78.6 641.7-122.9 751.2c-22.5 56 20.5 96 71.3 124.2"/>
    <path fill="#414042" d="M453.2 433.8c3.7-3.4 6.8-8.6 9.5-15 1 5.3-2 10.4-9.5 15Z"/>
  </g>
  <g id="foreground">
    <path fill="#414042" d="M1255.6 139.5c38.2 10.7 114.5 105.6 27.6 109.7l183.6 18.8c-33.7-53.3-44.3-109.2 11.2-123Z"/>
    <path fill="#414042" d="M1220.7 514.7c170-186.7 193-127.5 277.3-137.8 27.7-3.4 42 10.8 47.1 33.4a284.7 284.7 0 0 1 34.1-27.6 306.6 306.6 0 0 1-42.3-67.1c-34.6-75.5-253.7-66.4-253.7-66.4 115.5 56.4-4.5 159.1-45.4 178.2s-202.8 29.1-296.4 31-185.5-41-211.9-87.3-128.1-105.5-191.8-100c-55.2 4.7-57 104.7-75 147.6a41.6 41.6 0 0 1-9.5 15 23.3 23.3 0 0 1-4.9 3.3c-57.7 42.5 15.9 142.7 85 220.7 71 80.1 222.2 133 394 152.7s305.7 145 423.6 290.1S1502 1232 1641 1153.4c-89.3-84.5-200.2-126.4-200.2-126.4s-390-325.7-220.1-512.3ZM1754.6 0h-768q-9.7 11.2-20.2 22c105.5 6.8 189.8 105.7 365.9 136.3C1525.9 192 1577.7 33 1756.8 26.5h1.1q-1.9-13.3-3.3-26.5Z"/>
    <path fill="#414042" d="M998.8 1058.2c72.4 21.6 209.8 266.9 155 456.3q43.2-.4 86.3-1.1c78.1-1.3 156.2-3.4 234.3-5.4l37.2-46c-113.4-5.2-232.2-74.8-260.4-187.7-54.4-217.6-195-306.7-346-337s-436.8 18.2-467 240.3 169.2 140.5 169.2 140.5c-176.8-273.5 275-294.6 391.4-259.9Z"/>
    <path fill="#414042" d="M683.3 753.2c46.9 45 37.2 177.7-16 197.3s237.9 49 237.9 49-100.8 28-88.2-68.6 88.2-148.3 88.2-148.3-280-85.4-221.9-29.4ZM1014.3 805c30.8 36.4 50.4 172-29.3 183.3 0 0 136 183.2 121.9 82.5s27.7-197.5 93.5-172.2-186-93.6-186-93.6ZM1294.1 1009.3s21 156.6-113.3 145.5l57.3 137s26.7-183.2 172.2-174.8Z"/>
  </g>
</svg>
