<svg xmlns="http://www.w3.org/2000/svg" viewBox="0 0 2135 480">
<path d="M0,0V480H2135V0ZM2041.36,409.24c-85.45,63.64-291.82,40-345.45,43.64s-124.55-61.82-159.09-137.28-253.64-66.36-253.64-66.36c115.45,56.36-4.55,159.09-45.45,178.18S1035,456.51,941.36,458.33s-185.45-40.91-211.82-87.27-128.18-105.46-191.81-100-56.37,137.27-84.55,162.72-232.73,20-329.09,18.19S47.55,268.31,45.91,202.88C40.45-14.4,258.63,28.33,372.27,26.51S483.18,83.78,518.63,134.69s115.46-.91,198.19,5.46S812.27,37.42,934.09,22.88s204.54,101.81,398.18,135.45S1577.73,32.88,1756.82,26.51s200.91,108.18,140.91,118.18-96.37,123.64-18.19,153.64S1965.91,182,2045.91,181.06C2129.75,180.1,2126.82,345.6,2041.36,409.24Z" fill="#414042"/>
</svg>